<svg width="2560" height="1280" viewBox="0 0 2560 1280" fill="none" xmlns="http://www.w3.org/2000/svg">
<rect width="2560" height="1280" fill="#E6E6E6"/>
<g filter="url(#filter0_d_29_1395)">
<path d="M30 128.015C30 123.597 33.5817 120 38 120L442 120C446.418 120 450 123.582 450 128L450 1242C450 1246.42 446.418 1250 442 1250H38C33.5817 1250 30 1246.26 30 1241.84C30 564.948 30 357.916 30 128.015Z" fill="white"/>
</g>
<g filter="url(#filter1_d_29_1395)">
<path d="M460 127.999C460 123.581 463.582 120 468 120H858C862.418 120 866 123.582 866 128V282C866 286.418 862.418 290 858 290H468C463.582 290 460 286.39 460 281.972C460 192.011 460 159.411 460 127.999Z" fill="white"/>
</g>
<g filter="url(#filter2_d_29_1395)">
<path d="M876 127.999C876 123.581 879.582 120 884 120H1274C1278.42 120 1282 123.582 1282 128V282C1282 286.418 1278.42 290 1274 290H884C879.582 290 876 286.39 876 281.972C876 192.011 876 159.411 876 127.999Z" fill="white"/>
</g>
<g filter="url(#filter3_d_29_1395)">
<path d="M1292 127.999C1292 123.581 1295.58 120 1300 120H1690C1694.42 120 1698 123.582 1698 128V282C1698 286.418 1694.42 290 1690 290H1300C1295.58 290 1292 286.39 1292 281.972C1292 192.011 1292 159.411 1292 127.999Z" fill="white"/>
</g>
<g filter="url(#filter4_d_29_1395)">
<path d="M1708 127.999C1708 123.581 1711.58 120 1716 120H2106C2110.42 120 2114 123.582 2114 128V282C2114 286.418 2110.42 290 2106 290H1716C1711.58 290 1708 286.39 1708 281.972C1708 192.011 1708 159.411 1708 127.999Z" fill="white"/>
</g>
<g filter="url(#filter5_d_29_1395)">
<path d="M2124 127.999C2124 123.581 2127.58 120 2132 120H2522C2526.42 120 2530 123.582 2530 128V282C2530 286.418 2526.42 290 2522 290H2132C2127.58 290 2124 286.39 2124 281.972C2124 192.011 2124 159.411 2124 127.999Z" fill="white"/>
</g>
<g filter="url(#filter6_d_29_1395)">
<path d="M460 308.002C460 303.584 463.582 300 468 300H1274C1278.42 300 1282 303.582 1282 308V762C1282 766.418 1278.42 770 1274 770H468C463.582 770 460 766.295 460 761.876C460 488.651 460 401.279 460 308.002Z" fill="white"/>
</g>
<g filter="url(#filter7_d_29_1395)">
<path d="M1292 308.002C1292 303.584 1295.58 300 1300 300H2522C2526.42 300 2530 303.582 2530 308V762C2530 766.418 2526.42 770 2522 770H1300C1295.58 770 1292 766.295 1292 761.876C1292 488.651 1292 401.279 1292 308.002Z" fill="white"/>
</g>
<g filter="url(#filter8_d_29_1395)">
<path d="M460 788.002C460 783.584 463.582 780 468 780L2522 780C2526.42 780 2530 783.582 2530 788V1242C2530 1246.42 2526.42 1250 2522 1250L468 1250C463.582 1250 460 1246.29 460 1241.88C460 968.651 460 881.279 460 788.002Z" fill="white"/>
</g>
<path d="M0 0H2560V90H0V0Z" fill="#005CA9"/>
<defs>
<filter id="filter0_d_29_1395" x="26" y="120" width="428" height="1138" filterUnits="userSpaceOnUse" color-interpolation-filters="sRGB">
<feFlood flood-opacity="0" result="BackgroundImageFix"/>
<feColorMatrix in="SourceAlpha" type="matrix" values="0 0 0 0 0 0 0 0 0 0 0 0 0 0 0 0 0 0 127 0" result="hardAlpha"/>
<feOffset dy="4"/>
<feGaussianBlur stdDeviation="2"/>
<feComposite in2="hardAlpha" operator="out"/>
<feColorMatrix type="matrix" values="0 0 0 0 0 0 0 0 0 0 0 0 0 0 0 0 0 0 0.25 0"/>
<feBlend mode="normal" in2="BackgroundImageFix" result="effect1_dropShadow_29_1395"/>
<feBlend mode="normal" in="SourceGraphic" in2="effect1_dropShadow_29_1395" result="shape"/>
</filter>
<filter id="filter1_d_29_1395" x="456" y="120" width="414" height="178" filterUnits="userSpaceOnUse" color-interpolation-filters="sRGB">
<feFlood flood-opacity="0" result="BackgroundImageFix"/>
<feColorMatrix in="SourceAlpha" type="matrix" values="0 0 0 0 0 0 0 0 0 0 0 0 0 0 0 0 0 0 127 0" result="hardAlpha"/>
<feOffset dy="4"/>
<feGaussianBlur stdDeviation="2"/>
<feComposite in2="hardAlpha" operator="out"/>
<feColorMatrix type="matrix" values="0 0 0 0 0 0 0 0 0 0 0 0 0 0 0 0 0 0 0.25 0"/>
<feBlend mode="normal" in2="BackgroundImageFix" result="effect1_dropShadow_29_1395"/>
<feBlend mode="normal" in="SourceGraphic" in2="effect1_dropShadow_29_1395" result="shape"/>
</filter>
<filter id="filter2_d_29_1395" x="872" y="120" width="414" height="178" filterUnits="userSpaceOnUse" color-interpolation-filters="sRGB">
<feFlood flood-opacity="0" result="BackgroundImageFix"/>
<feColorMatrix in="SourceAlpha" type="matrix" values="0 0 0 0 0 0 0 0 0 0 0 0 0 0 0 0 0 0 127 0" result="hardAlpha"/>
<feOffset dy="4"/>
<feGaussianBlur stdDeviation="2"/>
<feComposite in2="hardAlpha" operator="out"/>
<feColorMatrix type="matrix" values="0 0 0 0 0 0 0 0 0 0 0 0 0 0 0 0 0 0 0.25 0"/>
<feBlend mode="normal" in2="BackgroundImageFix" result="effect1_dropShadow_29_1395"/>
<feBlend mode="normal" in="SourceGraphic" in2="effect1_dropShadow_29_1395" result="shape"/>
</filter>
<filter id="filter3_d_29_1395" x="1288" y="120" width="414" height="178" filterUnits="userSpaceOnUse" color-interpolation-filters="sRGB">
<feFlood flood-opacity="0" result="BackgroundImageFix"/>
<feColorMatrix in="SourceAlpha" type="matrix" values="0 0 0 0 0 0 0 0 0 0 0 0 0 0 0 0 0 0 127 0" result="hardAlpha"/>
<feOffset dy="4"/>
<feGaussianBlur stdDeviation="2"/>
<feComposite in2="hardAlpha" operator="out"/>
<feColorMatrix type="matrix" values="0 0 0 0 0 0 0 0 0 0 0 0 0 0 0 0 0 0 0.25 0"/>
<feBlend mode="normal" in2="BackgroundImageFix" result="effect1_dropShadow_29_1395"/>
<feBlend mode="normal" in="SourceGraphic" in2="effect1_dropShadow_29_1395" result="shape"/>
</filter>
<filter id="filter4_d_29_1395" x="1704" y="120" width="414" height="178" filterUnits="userSpaceOnUse" color-interpolation-filters="sRGB">
<feFlood flood-opacity="0" result="BackgroundImageFix"/>
<feColorMatrix in="SourceAlpha" type="matrix" values="0 0 0 0 0 0 0 0 0 0 0 0 0 0 0 0 0 0 127 0" result="hardAlpha"/>
<feOffset dy="4"/>
<feGaussianBlur stdDeviation="2"/>
<feComposite in2="hardAlpha" operator="out"/>
<feColorMatrix type="matrix" values="0 0 0 0 0 0 0 0 0 0 0 0 0 0 0 0 0 0 0.25 0"/>
<feBlend mode="normal" in2="BackgroundImageFix" result="effect1_dropShadow_29_1395"/>
<feBlend mode="normal" in="SourceGraphic" in2="effect1_dropShadow_29_1395" result="shape"/>
</filter>
<filter id="filter5_d_29_1395" x="2120" y="120" width="414" height="178" filterUnits="userSpaceOnUse" color-interpolation-filters="sRGB">
<feFlood flood-opacity="0" result="BackgroundImageFix"/>
<feColorMatrix in="SourceAlpha" type="matrix" values="0 0 0 0 0 0 0 0 0 0 0 0 0 0 0 0 0 0 127 0" result="hardAlpha"/>
<feOffset dy="4"/>
<feGaussianBlur stdDeviation="2"/>
<feComposite in2="hardAlpha" operator="out"/>
<feColorMatrix type="matrix" values="0 0 0 0 0 0 0 0 0 0 0 0 0 0 0 0 0 0 0.25 0"/>
<feBlend mode="normal" in2="BackgroundImageFix" result="effect1_dropShadow_29_1395"/>
<feBlend mode="normal" in="SourceGraphic" in2="effect1_dropShadow_29_1395" result="shape"/>
</filter>
<filter id="filter6_d_29_1395" x="456" y="300" width="830" height="478" filterUnits="userSpaceOnUse" color-interpolation-filters="sRGB">
<feFlood flood-opacity="0" result="BackgroundImageFix"/>
<feColorMatrix in="SourceAlpha" type="matrix" values="0 0 0 0 0 0 0 0 0 0 0 0 0 0 0 0 0 0 127 0" result="hardAlpha"/>
<feOffset dy="4"/>
<feGaussianBlur stdDeviation="2"/>
<feComposite in2="hardAlpha" operator="out"/>
<feColorMatrix type="matrix" values="0 0 0 0 0 0 0 0 0 0 0 0 0 0 0 0 0 0 0.25 0"/>
<feBlend mode="normal" in2="BackgroundImageFix" result="effect1_dropShadow_29_1395"/>
<feBlend mode="normal" in="SourceGraphic" in2="effect1_dropShadow_29_1395" result="shape"/>
</filter>
<filter id="filter7_d_29_1395" x="1288" y="300" width="1246" height="478" filterUnits="userSpaceOnUse" color-interpolation-filters="sRGB">
<feFlood flood-opacity="0" result="BackgroundImageFix"/>
<feColorMatrix in="SourceAlpha" type="matrix" values="0 0 0 0 0 0 0 0 0 0 0 0 0 0 0 0 0 0 127 0" result="hardAlpha"/>
<feOffset dy="4"/>
<feGaussianBlur stdDeviation="2"/>
<feComposite in2="hardAlpha" operator="out"/>
<feColorMatrix type="matrix" values="0 0 0 0 0 0 0 0 0 0 0 0 0 0 0 0 0 0 0.25 0"/>
<feBlend mode="normal" in2="BackgroundImageFix" result="effect1_dropShadow_29_1395"/>
<feBlend mode="normal" in="SourceGraphic" in2="effect1_dropShadow_29_1395" result="shape"/>
</filter>
<filter id="filter8_d_29_1395" x="456" y="780" width="2078" height="478" filterUnits="userSpaceOnUse" color-interpolation-filters="sRGB">
<feFlood flood-opacity="0" result="BackgroundImageFix"/>
<feColorMatrix in="SourceAlpha" type="matrix" values="0 0 0 0 0 0 0 0 0 0 0 0 0 0 0 0 0 0 127 0" result="hardAlpha"/>
<feOffset dy="4"/>
<feGaussianBlur stdDeviation="2"/>
<feComposite in2="hardAlpha" operator="out"/>
<feColorMatrix type="matrix" values="0 0 0 0 0 0 0 0 0 0 0 0 0 0 0 0 0 0 0.25 0"/>
<feBlend mode="normal" in2="BackgroundImageFix" result="effect1_dropShadow_29_1395"/>
<feBlend mode="normal" in="SourceGraphic" in2="effect1_dropShadow_29_1395" result="shape"/>
</filter>
</defs>
</svg>
